<svg width="83" height="81" viewBox="0 0 83 81" fill="none" xmlns="http://www.w3.org/2000/svg">
<path fill-rule="evenodd" clip-rule="evenodd" d="M12.6381 9.66382C11.2974 9.66382 10.2105 10.7455 10.2105 12.0798C10.2105 13.4141 11.2974 14.4957 12.6381 14.4957H15.0658V79.2756C15.0658 80.4018 16.1975 81.1803 17.2561 80.7823L26.6966 77.2331C27.0158 77.1131 27.3732 77.1504 27.6604 77.3338L32.6042 80.49C33.6692 81.17 35.0347 81.17 36.0997 80.49L40.9174 77.4143C41.2724 77.1876 41.7276 77.1876 42.0826 77.4143L46.9003 80.49C47.9653 81.17 49.3307 81.17 50.3958 80.49L55.3395 77.3338C55.6267 77.1504 55.9842 77.1131 56.3034 77.2331L65.7438 80.7823C66.8025 81.1803 67.9342 80.4018 67.9342 79.2756V14.4957H70.3618C71.7026 14.4957 72.7895 13.4141 72.7895 12.0798C72.7895 10.7455 71.7026 9.66382 70.3618 9.66382H12.6381Z" fill="url(#paint0_linear_1_184)"/>
<path d="M8.05263 0C3.88142 0 0.5 3.3652 0.5 7.51633V16.6433C0.5 20.7944 3.88142 24.1596 8.05263 24.1596H10.4803V18.7227C7.66284 17.8168 5.625 15.1852 5.625 12.0798C5.625 8.22518 8.76491 5.10036 12.6382 5.10036H70.3618C74.2351 5.10036 77.375 8.22518 77.375 12.0798C77.375 15.1852 75.3372 17.8168 72.5197 18.7227V24.1596H74.9474C79.1186 24.1596 82.5 20.7944 82.5 16.6433V7.51633C82.5 3.3652 79.1186 0 74.9474 0H8.05263Z" fill="url(#paint1_linear_1_184)"/>
<path d="M40.3276 45.2988C39.5768 45.2753 38.7792 45.2049 37.9346 45.0876C37.09 44.9469 36.304 44.7357 35.5768 44.4542C34.8729 44.1726 34.2747 43.8325 33.782 43.4336C33.3128 43.0113 33.0782 42.5069 33.0782 41.9204C33.0782 41.6858 33.1251 41.4395 33.219 41.1814C33.3128 40.9233 33.4536 40.6887 33.6412 40.4776C33.8524 40.243 34.1105 40.0553 34.4155 39.9145C34.7439 39.7737 35.1193 39.7034 35.5416 39.7034C35.9169 39.7034 36.2689 39.762 36.5973 39.8793C36.9492 39.9732 37.3129 40.0905 37.6882 40.2312C38.0636 40.3485 38.4624 40.4776 38.8847 40.6183C39.307 40.7356 39.788 40.806 40.3276 40.8295V35.586C39.483 35.3045 38.6267 35.0112 37.7586 34.7062C36.8906 34.3778 36.1164 33.9672 35.436 33.4745C34.7556 32.9584 34.1926 32.3249 33.7468 31.5742C33.3245 30.8 33.1134 29.8264 33.1134 28.6533C33.1134 26.6357 33.7586 25.0521 35.0489 23.9025C36.3392 22.7529 38.0988 22.1195 40.3276 22.0022V20.2426C40.3276 19.9845 40.4097 19.7734 40.5739 19.6092C40.7616 19.4215 40.9845 19.3276 41.2426 19.3276C41.5006 19.3276 41.7118 19.4215 41.876 19.6092C42.0637 19.7734 42.1575 19.9845 42.1575 20.2426V22.0022C42.7675 22.0491 43.4244 22.1312 44.1282 22.2485C44.8555 22.3424 45.5242 22.5183 46.1341 22.7764C46.7676 23.011 47.2954 23.3277 47.7177 23.7265C48.14 24.1019 48.3512 24.5829 48.3512 25.1694C48.3512 25.7794 48.1166 26.2955 47.6474 26.7178C47.2016 27.1401 46.6268 27.3512 45.923 27.3512C45.5945 27.3512 45.3013 27.316 45.0432 27.2457C44.8086 27.1518 44.5623 27.058 44.3042 26.9641C44.0461 26.8703 43.7411 26.7764 43.3892 26.6826C43.0608 26.5888 42.6502 26.5184 42.1575 26.4715V31.3982C43.0725 31.7032 43.964 32.0199 44.8321 32.3484C45.7001 32.6534 46.4626 33.0522 47.1195 33.5449C47.7999 34.0141 48.3395 34.6124 48.7383 35.3396C49.1606 36.0669 49.3717 36.9936 49.3717 38.1198C49.3717 39.1755 49.184 40.1257 48.8087 40.9702C48.4568 41.7914 47.9523 42.5069 47.2954 43.1169C46.662 43.7034 45.8995 44.1844 45.008 44.5598C44.14 44.9117 43.1898 45.1345 42.1575 45.2284V47.0231C42.1575 47.2812 42.0637 47.4924 41.876 47.6566C41.7118 47.8443 41.5006 47.9381 41.2426 47.9381C40.9845 47.9381 40.7616 47.8443 40.5739 47.6566C40.4097 47.4924 40.3276 47.2812 40.3276 47.0231V45.2988ZM44.3042 38.4365C44.3042 37.803 44.14 37.3573 43.8115 37.0992C43.5065 36.8177 43.1898 36.6065 42.8614 36.4658L42.1575 36.1842V40.7239C42.8379 40.5831 43.3658 40.3251 43.7411 39.9497C44.1165 39.5509 44.3042 39.0465 44.3042 38.4365ZM40.3276 30.7296V26.5066C39.7176 26.6005 39.2015 26.7999 38.7792 27.1049C38.3569 27.3864 38.1457 27.8439 38.1457 28.4774C38.1457 29.0873 38.3099 29.5331 38.6384 29.8146C38.9669 30.0727 39.2953 30.2721 39.6238 30.4129L40.3276 30.7296Z" fill="url(#paint2_linear_1_184)"/>
<rect x="34.3896" y="52.5796" width="23.9056" height="4.83192" rx="2.41596" fill="url(#paint3_linear_1_184)"/>
<rect x="24.7513" y="52.5796" width="4.85526" height="4.83192" rx="2.41596" fill="url(#paint4_linear_1_184)"/>
<rect x="34.3896" y="62.2847" width="23.9056" height="4.83192" rx="2.41596" fill="url(#paint5_linear_1_184)"/>
<rect x="24.7513" y="62.2847" width="4.85526" height="4.83192" rx="2.41596" fill="url(#paint6_linear_1_184)"/>
<defs>
<linearGradient id="paint0_linear_1_184" x1="41.5" y1="9.66382" x2="41.5" y2="81" gradientUnits="userSpaceOnUse">
<stop stop-color="#EBF9F8"/>
<stop offset="1" stop-color="#A4F2EE"/>
</linearGradient>
<linearGradient id="paint1_linear_1_184" x1="41.5" y1="0" x2="41.5" y2="24.1596" gradientUnits="userSpaceOnUse">
<stop stop-color="#8DDDD8"/>
<stop offset="1" stop-color="#3AC2BA"/>
</linearGradient>
<linearGradient id="paint2_linear_1_184" x1="41.225" y1="19.3276" x2="41.225" y2="47.9381" gradientUnits="userSpaceOnUse">
<stop stop-color="#8DDDD8"/>
<stop offset="1" stop-color="#3AC2BA"/>
</linearGradient>
<linearGradient id="paint3_linear_1_184" x1="46.3424" y1="52.5796" x2="46.3424" y2="57.4115" gradientUnits="userSpaceOnUse">
<stop stop-color="#8DDDD8"/>
<stop offset="1" stop-color="#3AC2BA"/>
</linearGradient>
<linearGradient id="paint4_linear_1_184" x1="27.1789" y1="52.5796" x2="27.1789" y2="57.4115" gradientUnits="userSpaceOnUse">
<stop stop-color="#8DDDD8"/>
<stop offset="1" stop-color="#3AC2BA"/>
</linearGradient>
<linearGradient id="paint5_linear_1_184" x1="46.3424" y1="62.2847" x2="46.3424" y2="67.1166" gradientUnits="userSpaceOnUse">
<stop stop-color="#8DDDD8"/>
<stop offset="1" stop-color="#3AC2BA"/>
</linearGradient>
<linearGradient id="paint6_linear_1_184" x1="27.1789" y1="62.2847" x2="27.1789" y2="67.1166" gradientUnits="userSpaceOnUse">
<stop stop-color="#8DDDD8"/>
<stop offset="1" stop-color="#3AC2BA"/>
</linearGradient>
</defs>
</svg>
