<svg width="105" height="103" viewBox="0 0 105 103" fill="none" xmlns="http://www.w3.org/2000/svg">
<path d="M78.75 76.7674C93.2475 62.6349 93.2475 39.7216 78.75 25.5891C64.2525 11.4566 40.7475 11.4566 26.25 25.5891C11.7525 39.7216 11.7525 62.6349 26.25 76.7674C40.7475 90.8999 64.2525 90.8999 78.75 76.7674Z" fill="url(#paint0_linear_613_10)" fill-opacity="0.35"/>
<path d="M52.5077 81.6186C69.7485 81.6186 83.7249 67.9941 83.7249 51.1874C83.7249 34.3806 69.7485 20.7561 52.5077 20.7561C35.267 20.7561 21.2906 34.3806 21.2906 51.1874C21.2906 67.9941 35.267 81.6186 52.5077 81.6186Z" fill="url(#paint1_linear_613_10)" fill-opacity="0.1"/>
<path d="M52.5077 81.6186C69.7485 81.6186 83.7249 67.9941 83.7249 51.1874C83.7249 34.3806 69.7485 20.7561 52.5077 20.7561C35.267 20.7561 21.2906 34.3806 21.2906 51.1874C21.2906 67.9941 35.267 81.6186 52.5077 81.6186Z" fill="url(#paint2_linear_613_10)" fill-opacity="0.1"/>
<path d="M32.424 42.8981C32.424 37.4795 35.8153 34.0283 40.6294 34.0283C45.4435 34.0283 48.7852 37.4311 48.7852 42.8981C48.7852 48.365 45.4435 51.7678 40.6294 51.7678C35.8153 51.7678 32.424 48.3167 32.424 42.8981ZM44.0704 42.8981C44.0704 39.4469 42.6973 37.802 40.6294 37.802C38.5615 37.802 37.1884 39.4953 37.1884 42.8981C37.1884 46.3008 38.5946 47.9941 40.6294 47.9941C42.6642 47.9941 44.0704 46.3331 44.0704 42.8981ZM60.2828 34.3992H65.891L43.3591 66.5561H37.7509L60.2828 34.3992ZM54.8566 58.0573C54.8566 52.6387 58.248 49.1875 63.0125 49.1875C67.7769 49.1875 71.2179 52.6387 71.2179 58.0573C71.2179 63.4759 67.8266 66.927 63.0125 66.927C58.1984 66.927 54.8566 63.4759 54.8566 58.0573ZM66.4535 58.0573C66.4535 54.6545 65.0804 52.9612 63.0125 52.9612C60.9446 52.9612 59.5715 54.6223 59.5715 58.0573C59.5715 61.4923 60.9776 63.1533 63.0125 63.1533C65.0473 63.1533 66.4535 61.46 66.4535 58.0573Z" fill="#3AC2BA"/>
<defs>
<linearGradient id="paint0_linear_613_10" x1="72.0859" y1="-14.2679" x2="47.1499" y2="73.4328" gradientUnits="userSpaceOnUse">
<stop stop-color="#24DFD4"/>
<stop offset="1" stop-color="#2DAEA6"/>
</linearGradient>
<linearGradient id="paint1_linear_613_10" x1="104.074" y1="23.6334" x2="36.0657" y2="61.8827" gradientUnits="userSpaceOnUse">
<stop stop-color="#4AE5EF"/>
<stop offset="1" stop-color="#3FB8BF"/>
</linearGradient>
<linearGradient id="paint2_linear_613_10" x1="104.074" y1="23.6334" x2="36.0657" y2="61.8827" gradientUnits="userSpaceOnUse">
<stop stop-color="#22B9B0"/>
<stop offset="1" stop-color="#1C7C76"/>
</linearGradient>
</defs>
</svg>
