<svg width="95" height="72" viewBox="0 0 95 72" fill="none" xmlns="http://www.w3.org/2000/svg">
<path fill-rule="evenodd" clip-rule="evenodd" d="M12.8145 0C9.00359 0 5.91425 3.06492 5.91425 6.84562V51.0714H88.7174V6.84562C88.7174 3.06492 85.628 0 81.8171 0H12.8145Z" fill="url(#paint0_linear_1_202)"/>
<path d="M28.5246 38.5347H23.0666L17.5808 19.0647H23.6761L26.3082 29.7732L29.4389 19.0647H33.7056L36.8364 29.7732L39.4684 19.0647H45.5637L40.078 38.5347H34.6199L31.5723 28.1322L28.5246 38.5347Z" fill="url(#paint1_linear_1_202)"/>
<path d="M52.4837 31.2474V33.4169H59.6872V38.5347H46.9425V19.0647H59.5487V24.1269H52.4837V26.2408H58.856V31.2474H52.4837Z" fill="url(#paint2_linear_1_202)"/>
<path d="M74.3724 28.4937C76.0347 29.4394 76.8659 30.8765 76.8659 32.805C76.8659 34.6036 76.2841 36.0129 75.1204 37.0327C73.9568 38.034 72.2852 38.5347 70.1057 38.5347H61.9048V19.0647H69.607C71.7865 19.0647 73.4489 19.5375 74.594 20.4832C75.7392 21.4289 76.3118 22.7825 76.3118 24.5441C76.3118 26.2315 75.6653 27.5481 74.3724 28.4937ZM69.2745 23.8488H67.4459V26.4633L69.5793 26.4355C70.3735 26.3242 70.7706 25.8977 70.7706 25.156C70.7706 24.7481 70.6229 24.4329 70.3273 24.2103C70.0503 23.9693 69.6993 23.8488 69.2745 23.8488ZM67.4459 33.7506H69.7732C70.2165 33.7506 70.5859 33.6208 70.8815 33.3612C71.177 33.1016 71.3247 32.7679 71.3247 32.3599C71.3247 31.5811 70.9092 31.1268 70.078 30.997L67.4459 30.9692V33.7506Z" fill="url(#paint3_linear_1_202)"/>
<path d="M0 58.6012C0 56.4823 1.71769 54.7646 3.83656 54.7646H34.1704C34.6981 54.7646 35.2044 54.9732 35.579 55.3448L37.8595 57.6073C38.2341 57.9789 38.7404 58.1875 39.2681 58.1875H55.364C55.8917 58.1875 56.398 57.9789 56.7726 57.6073L59.0531 55.3448C59.4277 54.9732 59.934 54.7646 60.4617 54.7646H90.7956C92.9144 54.7646 94.6321 56.4823 94.6321 58.6012C94.6321 65.6641 88.9065 71.3897 81.8436 71.3897H12.7885C5.72563 71.3897 0 65.6641 0 58.6012Z" fill="url(#paint4_linear_1_202)"/>
<defs>
<linearGradient id="paint0_linear_1_202" x1="47.3158" y1="0" x2="47.3158" y2="63.0775" gradientUnits="userSpaceOnUse">
<stop stop-color="#EBF9F8"/>
<stop offset="1" stop-color="#A4F2EE"/>
</linearGradient>
<linearGradient id="paint1_linear_1_202" x1="47.2234" y1="19.0647" x2="47.2234" y2="38.5347" gradientUnits="userSpaceOnUse">
<stop stop-color="#8DDDD8"/>
<stop offset="1" stop-color="#3AC2BA"/>
</linearGradient>
<linearGradient id="paint2_linear_1_202" x1="47.2234" y1="19.0647" x2="47.2234" y2="38.5347" gradientUnits="userSpaceOnUse">
<stop stop-color="#8DDDD8"/>
<stop offset="1" stop-color="#3AC2BA"/>
</linearGradient>
<linearGradient id="paint3_linear_1_202" x1="47.2234" y1="19.0647" x2="47.2234" y2="38.5347" gradientUnits="userSpaceOnUse">
<stop stop-color="#8DDDD8"/>
<stop offset="1" stop-color="#3AC2BA"/>
</linearGradient>
<linearGradient id="paint4_linear_1_202" x1="47.3161" y1="54.7646" x2="47.3161" y2="71.3897" gradientUnits="userSpaceOnUse">
<stop stop-color="#8DDDD8"/>
<stop offset="1" stop-color="#3AC2BA"/>
</linearGradient>
</defs>
</svg>
