<svg version="1.1" id="Layer_1" xmlns="http://www.w3.org/2000/svg" xmlns:xlink="http://www.w3.org/1999/xlink" x="0px" y="0px"
	 viewBox="0 0 512 512" style="enable-background:new 0 0 512 512;" xml:space="preserve">
<circle style="fill:#0575A5;" cx="256" cy="256" r="256"/>
<path style="fill:#025E90;" d="M393.144,170.898h-69.158l-21.21-21.217H285.11l-13.161-13.125c-0.796-0.97-1.679-1.856-2.634-2.67
	l-0.182-0.189c-0.095-0.077-0.207-0.125-0.302-0.205c-0.666-0.532-1.359-1.019-2.092-1.462c-0.246-0.148-0.479-0.302-0.73-0.448
	c-0.809-0.451-1.664-0.845-2.534-1.18c-0.246-0.1-0.492-0.182-0.737-0.266c-0.937-0.33-1.894-0.596-2.89-0.778
	c-0.179-0.036-0.356-0.056-0.53-0.084c-1.08-0.174-2.184-0.287-3.315-0.287c-11.41,0-20.662,9.283-20.662,20.698h-26.15V170.9
	h-90.33v93.583v17.623v71.649l157.373,157.376c121.385-9.503,218.926-103.601,233.738-223.414L393.144,170.898z"/>
<g>
	<rect x="118.861" y="170.885" style="fill:#FFFFFF;" width="274.278" height="182.861"/>
	<rect x="136.525" y="216.934" style="fill:#E1EFFA;" width="88.394" height="109.028"/>
</g>
<path style="fill:#FFFFFF;" d="M201.705,258.427c0,13.655-9.395,24.722-20.989,24.722c-11.604,0-21.002-11.067-21.002-24.722
	c0-13.66,9.398-24.742,21.002-24.742C192.307,233.684,201.705,244.767,201.705,258.427z"/>
<path style="fill:#FF8E31;" d="M191.892,288.968c-3.464,1.615-7.219,2.506-11.177,2.506c-3.963,0-7.734-0.891-11.185-2.506
	c-15.171,2.668-26.455,10.632-27.763,20.247h77.88C218.342,299.599,207.055,291.635,191.892,288.968z"/>
<path style="fill:#B8D1E6;" d="M224.909,216.929v109.028h-88.394V216.929H224.909L224.909,216.929z M228.575,213.263h-95.724v116.36
	h95.726v-116.36H228.575z"/>
<g>
	<rect x="298.419" y="239.923" style="fill:#CEE2F2;" width="80.724" height="9.116"/>
	<rect x="298.419" y="213.274" style="fill:#CEE2F2;" width="80.724" height="9.121"/>
	<rect x="244.25" y="266.778" style="fill:#CEE2F2;" width="134.889" height="9.129"/>
	<rect x="244.25" y="293.632" style="fill:#CEE2F2;" width="134.889" height="9.129"/>
	<rect x="244.25" y="320.486" style="fill:#CEE2F2;" width="67.451" height="9.129"/>
</g>
<rect x="244.25" y="213.274" style="fill:#B8D1E6;" width="35.773" height="35.768"/>
<rect x="118.861" y="170.885" style="fill:#FF8E31;" width="274.278" height="21.202"/>
<path style="fill:#5D6D7E;" d="M276.644,149.676c0-11.412-9.239-20.685-20.644-20.685c-11.412,0-20.654,9.272-20.654,20.685h-26.145
	v42.412h93.591v-42.412H276.644z M256,142.659c3.871,0,7.03,3.139,7.03,7.017c0,3.871-3.159,7.002-7.03,7.002
	c-3.891,0-7.03-3.133-7.03-7.002C248.97,145.797,252.109,142.659,256,142.659z"/>
<path style="fill:#283A4D;" d="M276.644,149.676c0-11.412-9.239-20.685-20.644-20.685c-11.412,0-20.654,9.272-20.654,20.685h-26.145
	v21.21h93.591v-21.21H276.644z M256,142.659c3.871,0,7.03,3.139,7.03,7.017c0,3.871-3.159,7.002-7.03,7.002
	c-3.891,0-7.03-3.133-7.03-7.002C248.97,145.797,252.109,142.659,256,142.659z"/>
<rect x="209.203" y="166.451" style="fill:#5D6D7E;" width="93.591" height="4.431"/>
<rect x="209.203" y="170.885" style="fill:#283A4D;" width="93.591" height="4.424"/>
<g>
</g>
<g>
</g>
<g>
</g>
<g>
</g>
<g>
</g>
<g>
</g>
<g>
</g>
<g>
</g>
<g>
</g>
<g>
</g>
<g>
</g>
<g>
</g>
<g>
</g>
<g>
</g>
<g>
</g>
</svg>
