<svg width="84" height="85" xmlns="http://www.w3.org/2000/svg">
 <!-- Created with Method Draw - http://github.com/duopixel/Method-Draw/ -->
 <defs>
  <linearGradient y2="0.063167" x2="0.587666" y1="1.062032" x1="0.29797" id="svg_10">
   <stop stop-color="#d4fffc" offset="0.223958"/>
   <stop stop-color="#16aea4" offset="1"/>
  </linearGradient>
 </defs>
 <g>
  <title>background</title>
  <rect fill="rgba(255,255,255,0)" id="canvas_background" height="87" width="86" y="-1" x="-1"/>
 </g>
 <g>
  <title>Layer 1</title>

  <g stroke="null" id="svg_8">
   <path stroke="null" id="svg_6" fill-opacity="0.35" fill="url(#svg_10)" d="m13.171027,13.172904c-15.896707,16.1718 -15.896707,42.391457 0,58.563257c15.896707,16.1718 41.670261,16.1718 57.566967,0c15.896707,-16.1718 15.896707,-42.391457 0,-58.563257c-15.896707,-16.1718 -41.670261,-16.1718 -57.566967,0z"/>
   <path stroke="null" id="svg_7" fill="#3AC2BA" d="m63.968119,51.929267c0,6.200496 -3.718607,10.149585 -8.997333,10.149585c-5.278726,0 -8.942946,-3.893705 -8.942946,-10.149585c0,-6.25588 3.66422,-10.149585 8.942946,-10.149585c5.278726,0 8.997333,3.949089 8.997333,10.149585zm-12.770437,0c0,3.949089 1.505623,5.83146 3.773104,5.83146c2.267481,0 3.773104,-1.937641 3.773104,-5.83146c0,-3.893819 -1.541918,-5.83146 -3.773104,-5.83146c-2.231186,0 -3.773104,1.900794 -3.773104,5.83146zm-17.777118,9.725165l-6.149468,0l24.706536,-36.796981l6.149468,0l-24.706536,36.796981zm5.949902,-27.071816c0,6.200496 -3.718716,10.149585 -8.943056,10.149585c-5.22423,0 -8.997333,-3.949089 -8.997333,-10.149585c0,-6.200496 3.718607,-10.149585 8.997333,-10.149585c5.278726,0 8.943056,3.949089 8.943056,10.149585zm-12.716159,0c0,3.893705 1.505623,5.83146 3.773104,5.83146c2.267481,0 3.773104,-1.900794 3.773104,-5.83146c0,-3.930666 -1.541808,-5.83146 -3.773104,-5.83146c-2.231186,0 -3.773104,1.937641 -3.773104,5.83146z"/>
  </g>
 </g>
</svg>