<svg width="77" height="81" viewBox="0 0 77 81" fill="none" xmlns="http://www.w3.org/2000/svg">
<path d="M29.6226 15.9902C29.7745 15.6108 30.1421 15.3621 30.5508 15.3621H42.2528C42.6615 15.3621 43.029 15.6108 43.181 15.9902L47.9749 27.9557C48.2381 28.6126 47.7543 29.3276 47.0466 29.3276H25.757C25.0493 29.3276 24.5655 28.6126 24.8287 27.9557L29.6226 15.9902Z" fill="url(#paint0_linear_1_150)"/>
<path d="M3.79704 35.1717C3.23642 34.524 3.69651 33.5172 4.55314 33.5172H19.403C19.8133 33.5172 20.1819 33.7678 20.3329 34.1493L32.8381 65.7527C33.2523 66.7996 31.8889 67.6264 31.1521 66.7751L3.79704 35.1717Z" fill="url(#paint1_linear_1_150)"/>
<path d="M69.0066 35.1717C69.5672 34.524 69.1071 33.5172 68.2505 33.5172H53.4006C52.9903 33.5172 52.6217 33.7678 52.4707 34.1493L39.9655 65.7528C39.5513 66.7996 40.9147 67.6264 41.6515 66.7751L69.0066 35.1717Z" fill="url(#paint2_linear_1_150)"/>
<path d="M47.6754 16.734C47.4122 16.077 47.8959 15.3621 48.6036 15.3621H61.93C62.2899 15.3621 62.622 15.5555 62.7996 15.8685L69.5909 27.834C69.9693 28.5006 69.4877 29.3276 68.7212 29.3276H53.3975C52.9888 29.3276 52.6212 29.0789 52.4692 28.6995L47.6754 16.734Z" fill="url(#paint3_linear_1_150)"/>
<path d="M25.1282 16.734C25.3914 16.077 24.9077 15.3621 24.2 15.3621H10.8736C10.5137 15.3621 10.1816 15.5555 10.004 15.8685L3.21271 27.834C2.83435 28.5006 3.31587 29.3276 4.0824 29.3276H19.4061C19.8149 29.3276 20.1824 29.0789 20.3344 28.6995L25.1282 16.734Z" fill="#3AC2BA"/>
<path d="M35.4717 61.8839C35.8047 62.7279 36.9991 62.7279 37.3321 61.8839L47.9852 34.8844C48.2441 34.2281 47.7604 33.5173 47.055 33.5173H25.7488C25.0433 33.5173 24.5596 34.2281 24.8186 34.8844L35.4717 61.8839Z" fill="#3AC2BA"/>
<path d="M7.49381 56.7932C6.83522 60.3428 4.05516 63.1184 0.499941 63.776C4.05516 64.4335 6.83522 67.2092 7.49381 70.7587C8.15239 67.2092 10.9325 64.4335 14.4877 63.776C10.9325 63.1184 8.15239 60.3428 7.49381 56.7932Z" fill="url(#paint4_linear_1_150)"/>
<path d="M48.9908 72.6206C48.5957 74.7503 46.9276 76.4157 44.7945 76.8103C46.9276 77.2048 48.5957 78.8702 48.9908 80.9999C49.386 78.8702 51.054 77.2048 53.1871 76.8103C51.054 76.4157 49.386 74.7503 48.9908 72.6206Z" fill="url(#paint5_linear_1_150)"/>
<path d="M67.6411 47.9482C66.8069 52.4444 63.2855 55.9602 58.7822 56.7931C63.2855 57.626 66.8069 61.1418 67.6411 65.6379C68.4753 61.1418 71.9967 57.626 76.5 56.7931C71.9967 55.9602 68.4753 52.4444 67.6411 47.9482Z" fill="url(#paint6_linear_1_150)"/>
<rect x="34.0706" y="0.477783" width="4.66258" height="10.2414" rx="2.33129" fill="url(#paint7_linear_1_150)"/>
<rect width="4.66073" height="10.2455" rx="2.33036" transform="matrix(0.866369 0.499404 -0.500596 0.865681 48.0582 0)" fill="url(#paint8_linear_1_150)"/>
<rect width="4.66073" height="10.2455" rx="2.33036" transform="matrix(-0.866369 0.499404 0.500596 0.865681 24.587 0)" fill="url(#paint9_linear_1_150)"/>
<defs>
<linearGradient id="paint0_linear_1_150" x1="36.4018" y1="15.3621" x2="36.4018" y2="71.2241" gradientUnits="userSpaceOnUse">
<stop stop-color="#8DDDD8"/>
<stop offset="1" stop-color="#3AC2BA"/>
</linearGradient>
<linearGradient id="paint1_linear_1_150" x1="36.4018" y1="15.3621" x2="36.4018" y2="71.2241" gradientUnits="userSpaceOnUse">
<stop stop-color="#8DDDD8"/>
<stop offset="1" stop-color="#3AC2BA"/>
</linearGradient>
<linearGradient id="paint2_linear_1_150" x1="36.4018" y1="15.3621" x2="36.4018" y2="71.2241" gradientUnits="userSpaceOnUse">
<stop stop-color="#8DDDD8"/>
<stop offset="1" stop-color="#3AC2BA"/>
</linearGradient>
<linearGradient id="paint3_linear_1_150" x1="58.7822" y1="15.3621" x2="58.7822" y2="29.3276" gradientUnits="userSpaceOnUse">
<stop stop-color="#EBF9F8"/>
<stop offset="1" stop-color="#A4F2EE"/>
</linearGradient>
<linearGradient id="paint4_linear_1_150" x1="7.49381" y1="56.7932" x2="7.49381" y2="70.7587" gradientUnits="userSpaceOnUse">
<stop stop-color="#EBF9F8"/>
<stop offset="1" stop-color="#A4F2EE"/>
</linearGradient>
<linearGradient id="paint5_linear_1_150" x1="48.9908" y1="72.6206" x2="48.9908" y2="80.9999" gradientUnits="userSpaceOnUse">
<stop stop-color="#EBF9F8"/>
<stop offset="1" stop-color="#A4F2EE"/>
</linearGradient>
<linearGradient id="paint6_linear_1_150" x1="67.6411" y1="47.9482" x2="67.6411" y2="65.6379" gradientUnits="userSpaceOnUse">
<stop stop-color="#EBF9F8"/>
<stop offset="1" stop-color="#A4F2EE"/>
</linearGradient>
<linearGradient id="paint7_linear_1_150" x1="36.4018" y1="0.477783" x2="36.4018" y2="10.7192" gradientUnits="userSpaceOnUse">
<stop stop-color="#EBF9F8"/>
<stop offset="1" stop-color="#A4F2EE"/>
</linearGradient>
<linearGradient id="paint8_linear_1_150" x1="2.33036" y1="0" x2="2.33036" y2="10.2455" gradientUnits="userSpaceOnUse">
<stop stop-color="#EBF9F8"/>
<stop offset="1" stop-color="#A4F2EE"/>
</linearGradient>
<linearGradient id="paint9_linear_1_150" x1="2.33036" y1="0" x2="2.33036" y2="10.2455" gradientUnits="userSpaceOnUse">
<stop stop-color="#EBF9F8"/>
<stop offset="1" stop-color="#A4F2EE"/>
</linearGradient>
</defs>
</svg>
